<?xml version="1.0" encoding="UTF-8"?><svg id="Capa_2" xmlns="http://www.w3.org/2000/svg" xmlns:xlink="http://www.w3.org/1999/xlink" viewBox="0 0 29.95 29.95"><defs><linearGradient id="Degradado_sin_nombre_48" x1="0" y1="14.98" x2="29.95" y2="14.98" gradientUnits="userSpaceOnUse"><stop offset="0" stop-color="#557eff"/><stop offset="1" stop-color="#00dbd5"/></linearGradient></defs><g id="Capa_1-2"><g isolation="isolate"><g isolation="isolate"><rect x="0" y="0" width="29.95" height="29.95" rx="14.98" ry="14.98" fill="url(#Degradado_sin_nombre_48)"/></g><path d="M4.95,15.02c1.38,0,2.6,0,3.83.01.11,0,.25.15.31.26.35.68.68,1.37,1,2.06.11.24.24.34.52.34,2.93-.02,5.85-.02,8.78-.02.3,0,.43-.11.55-.37.31-.7.63-1.39.97-2.08.06-.11.19-.27.29-.27,1.25-.02,2.51-.01,3.78-.01,0,.21.06.42,0,.55-.34.68-.7,1.34-1.09,2-.06.1-.28.16-.43.16-1.02.04-2.05.07-3.07.07-.37,0-.58.09-.73.47-.24.62-.57,1.21-.86,1.81-.18.37-.44.53-.88.51-1.97-.05-3.94-.07-5.9-.1-.53,0-.73-.44-.94-.8-.29-.49-.51-1.02-.74-1.55-.11-.25-.25-.35-.52-.35-.9,0-1.81-.03-2.71,0-.69.02-1.16-.24-1.42-.86-.25-.6-.48-1.2-.73-1.84Z" fill="#fafafa"/><path d="M9.07,12.58c.15-.41.27-.83.45-1.22.28-.61.61-1.19.91-1.79.1-.2.23-.29.48-.29,2.75.01,5.5,0,8.25.02.14,0,.35.08.4.19.45.89.87,1.79,1.29,2.69.05.12.05.26.07.39-.74.34-10.43.36-11.85.02Z" fill="#fafafa"/></g></g></svg>